<svg xmlns="http://www.w3.org/2000/svg" viewBox="0 0 1922 349.62"><defs><style>.cls-1{fill:#3a98cc;}.cls-2{fill:#38cfe8;}.cls-3{fill:#4fb9e6;}.cls-4{fill:#3ef2ff;}</style></defs><g id="wave4"><path class="cls-1" d="M0,1080H1920V877.28c-45.36-10.11-80-41.79-99.17-79.43-20-39.21-69.28-61.47-120.93-61.47-52.92,0-99,26-122.7,64.22-19,46.69-69.64,80.08-129.11,80.08s-110.06-33.37-129.1-80h-1c-24.25-36.57-69.23-61.14-120.73-61.14-50.28,0-98.79,20.71-119,58.59-24,45.12-69.59,82-129.88,82-59.21,0-129.7-79.46-129.7-79.46-24.16-36.89-69.35-61.72-121.11-61.72s-97,24.83-121.12,61.72h0c-22.71,39.17-68.9,66-122.19,66-57.16,0-101-33.67-126.75-74.69-21.39-34-66.79-51.51-113.62-51.51-51.06,0-95.71,24.16-120.1,60.22,0,0-45,52-93.8,73Z" transform="translate(2 -736.38)"/></g><g id="wave3"><path class="cls-2" d="M-2,1081H1918V783.44c-29.5,9.6-54.32,27.73-70.62,51-18.4,47.7-69.6,82-129.89,82-59.2,0-129.7-79.46-129.7-79.46-24.16-36.89-69.35-61.72-121.11-61.72s-97,24.83-121.11,61.72h0c-22.71,39.17-68.9,66-122.19,66-57.15,0-101-33.67-126.75-74.69-21.39-34-66.79-51.51-113.61-51.51-51.06,0-95.72,24.16-120.11,60.22,0,0-70.62,81.54-130.71,81.54S601.07,837,601.07,837c-24.48-35.75-68.94-59.65-119.72-59.65S386.1,801.24,361.63,837c0,0-71,81.54-131.1,81.54-60.61,0-106.83-37-130.17-82.8C82.79,801.26,42.56,779.87-2,775.2Z" transform="translate(2 -736.38)"/></g><g id="wave2"><path class="cls-3" d="M0,1081H1918V936c-36.69-23.47-66-56.49-66-56.49-24.16-36.89-69.35-61.72-121.11-61.72s-97,24.83-121.11,61.72h0c-22.71,39.17-68.9,66-122.19,66-57.15,0-106.14-30.84-126.75-74.69-25.36-31.18-66.79-51.51-113.61-51.51-51.06,0-95.72,24.16-120.11,60.22h-1c-18.55,47.45-69.6,81.54-129.69,81.54S885.24,927,866.69,879.53h-1.4c-24.48-35.74-68.94-59.64-119.72-59.64s-95.25,23.9-119.72,59.64h-1.4c-18.55,47.45-69.61,81.54-129.7,81.54-60.61,0-112-34.69-130.17-82.79-24.2-36.77-69.29-61.51-120.95-61.51-52.25,0-97.79,25.3-121.78,62.76h-.34c-17.7,45.28-65,78.37-121.51,81.3Z" transform="translate(2 -736.38)"/></g><g id="wave1"><path class="cls-4" d="M0,1086H1918V856c-3.22-.19-6.46-.3-9.73-.3-51.06,0-95.71,24.16-120.11,60.22,0,0-70.62,81.54-130.7,81.54s-111.15-34.09-129.7-81.54h-1.4c-24.47-35.75-68.93-59.64-119.72-59.64s-95.24,23.89-119.72,59.64h-1.4c-18.55,47.45-69.61,81.54-129.69,81.54-60.62,0-112-34.69-130.18-82.8-24.19-36.76-69.28-61.5-120.94-61.5-52.25,0-97.8,25.3-121.78,62.76h-.34C764,963.33,713,997.42,652.89,997.42S521.8,915.88,521.8,915.88C496,887,452.86,856.24,402.08,856.24c-50.28,0-98.79,20.7-119,58.58-24,45.12-69.59,82-129.89,82-59.84,0-110.72-33.81-129.46-81H22.52A127.62,127.62,0,0,0,0,890.72Z" transform="translate(2 -736.38)"/></g></svg>